<svg  viewBox="0 0 88 25" fill="none" xmlns="http://www.w3.org/2000/svg">
<path fill-rule="evenodd" clip-rule="evenodd" d="M41.0913 10.7604L44.7896 10.7254L44.4589 11.6272L41.7211 11.6531L38.0046 21.7883L33.899 21.8271L34.2297 20.9254L37.3749 20.8956L41.0913 10.7604ZM67.5658 20.6097L73.0202 11.3301L73.8928 11.5055L68.0158 21.5041L61.5968 21.5649L61.9275 20.6631L67.5658 20.6097ZM82.0337 15.527C82.5666 14.0636 82.5286 13.092 82.0584 12.5058L82.9515 11.8354C83.612 12.6586 83.5768 13.9292 82.9864 15.5391L82.9786 15.5605L82.0256 17.5983L75.4176 17.6608L75.7483 16.759L81.4829 16.7047L82.0337 15.527ZM12.7435 13.5824L13.8715 13.5717L14.9848 21.1076L18.2765 21.0764L20.4848 15.0542L21.4452 15.0451L18.9063 21.9691L14.0511 22.0151L13.0624 15.3229L10.5965 22.0478L6.01066 22.0912L8.54963 15.1672L9.51008 15.1581L7.30178 21.1803L9.96669 21.1551L12.7435 13.5824ZM49.7088 14.2638C50.1137 14.1508 50.4866 14.0756 50.8238 14.0433L50.5857 14.9402C50.3339 14.9643 50.0355 15.0225 49.6866 15.1199C49.3275 15.2201 48.9779 15.3321 48.6379 15.4555C48.4265 15.5352 48.23 15.6099 48.0483 15.6796L45.8355 21.7141L41.3923 21.7562L43.3212 16.4959L44.2816 16.4868L42.6834 20.8453L45.2057 20.8214L47.298 15.1154L47.6185 14.991C47.8894 14.8858 48.1986 14.7676 48.5457 14.6367L48.5499 14.6351L48.554 14.6336C48.9308 14.4967 49.3158 14.3735 49.7088 14.2638ZM16.8553 16.405L16.5294 16.408L16.8601 15.5063L17.1859 15.5032L16.8553 16.405ZM72.8622 16.3591C72.4686 17.4326 72.2992 18.2884 72.3277 18.9434C72.3683 19.5714 72.6337 20.0247 73.1225 20.3234C73.6252 20.6149 74.4279 20.7734 75.5792 20.7625C76.1064 20.7575 76.6712 20.7275 77.274 20.6721C77.8814 20.6162 78.4654 20.5482 79.026 20.4681C79.3919 20.4158 79.7156 20.3668 79.9979 20.321L80.5944 18.5121L81.5658 18.4716L80.7137 21.0554L80.2835 21.1321C79.8976 21.2009 79.4164 21.2764 78.8415 21.3585C78.2598 21.4417 77.6565 21.5119 77.0316 21.5693C76.4021 21.6272 75.8076 21.659 75.2486 21.6643C74.0121 21.676 73.0409 21.5089 72.3838 21.1264L72.3812 21.1248L72.3786 21.1232C71.7195 20.7219 71.3648 20.1027 71.3131 19.286L71.3129 19.2829L71.3128 19.2797C71.2775 18.4874 71.4827 17.5112 71.9018 16.3682L72.8622 16.3591ZM21.5549 18.5981C21.187 19.6014 21.2163 20.2475 21.5115 20.6362C21.8119 21.0316 22.4444 21.2656 23.5321 21.2553C23.9218 21.2517 24.3173 21.2126 24.7191 21.1385C25.1351 21.0617 25.5191 20.974 25.8716 20.8759C26.2413 20.7614 26.5302 20.6632 26.7432 20.5811L27.1171 20.4368L27.264 20.6827C27.3065 20.7539 27.409 20.856 27.609 20.982C27.7684 21.0685 28.0106 21.1259 28.3623 21.1336L28.3859 21.1341L28.4084 21.1369C28.5561 21.1548 28.8017 21.1551 29.1659 21.127L29.1749 21.1263L29.1839 21.1259C29.5427 21.1102 29.8839 21.0825 30.2077 21.0431L29.9987 21.9368C29.6456 21.9798 29.2786 22.0095 28.898 22.0263C28.5266 22.0547 28.2135 22.0606 27.9771 22.0347C27.538 22.0227 27.1626 21.9476 26.8772 21.789L26.8702 21.7852L26.8635 21.781C26.7301 21.6976 26.611 21.61 26.5131 21.5169C26.3248 21.5822 26.1123 21.6513 25.8766 21.7241L25.8675 21.7269L25.8584 21.7295C25.4598 21.8407 25.0345 21.9377 24.5832 22.021C24.1143 22.1075 23.6535 22.1528 23.2014 22.1571C21.9808 22.1687 21.0759 21.9091 20.6097 21.2954C20.1383 20.675 20.177 19.7456 20.5944 18.6072L21.5549 18.5981ZM50.4747 18.3243C50.1068 19.3276 50.1361 19.9737 50.4313 20.3623C50.7317 20.7577 51.3642 20.9918 52.4518 20.9815C52.8416 20.9778 53.2371 20.9388 53.6389 20.8647C54.0549 20.7879 54.4389 20.7001 54.7914 20.602C55.1611 20.4876 55.45 20.3894 55.663 20.3072L56.0369 20.163L56.1838 20.4089C56.2263 20.4801 56.3288 20.5822 56.5288 20.7082C56.6882 20.7946 56.9304 20.852 57.2821 20.8598L57.3056 20.8603L57.3282 20.8631C57.4759 20.881 57.7215 20.8812 58.0857 20.8532L58.0947 20.8525L58.1037 20.8521C58.4625 20.8364 58.8037 20.8087 59.1275 20.7693L58.9185 21.663C58.5654 21.7059 58.1984 21.7357 57.8178 21.7525C57.4464 21.7808 57.1333 21.7867 56.8969 21.7608C56.4578 21.7489 56.0824 21.6738 55.797 21.5152L55.79 21.5113L55.7833 21.5071C55.6499 21.4237 55.5308 21.3362 55.4329 21.2431C55.2446 21.3084 55.0321 21.3774 54.7964 21.4503L54.7873 21.4531L54.7782 21.4556C54.3796 21.5669 53.9543 21.6639 53.503 21.7471C53.0341 21.8337 52.5733 21.879 52.1212 21.8833C50.9005 21.8948 49.9956 21.6353 49.5294 21.0216C49.0581 20.4011 49.0968 19.4718 49.5142 18.3334L50.4747 18.3243Z" fill="#AF053F"/>
<path d="M5.08393 19.6131L9.81982 6.69781L13.8835 6.65934L15.0984 13.948L15.4235 13.945L18.1097 6.61932L21.7264 6.58508L16.9905 19.5003L12.9268 19.5388L11.8162 12.021L11.4708 12.0243L8.7006 19.5788L5.08393 19.6131Z" fill="#F4F6FF"/>
<path d="M21.7544 19.6833C20.603 19.6942 19.8361 19.448 19.4538 18.9447C19.0714 18.4414 19.0761 17.6555 19.4678 16.5872C19.7477 15.8241 20.1112 15.2377 20.5584 14.8279C21.0192 14.4179 21.5711 14.1275 22.2142 13.9567C22.8573 13.7858 23.5922 13.6775 24.4189 13.6316L26.5201 13.4787L26.674 13.059C26.7906 12.741 26.7638 12.5195 26.5937 12.3944C26.4372 12.2691 26.1693 12.2083 25.79 12.2119C25.3836 12.2157 24.9184 12.2328 24.3943 12.2631C23.8703 12.2934 23.3574 12.3299 22.8558 12.3727C22.3542 12.4155 21.9135 12.4577 21.5338 12.4993L22.2646 10.2301C22.6766 10.1375 23.1562 10.0442 23.7036 9.9503C24.2645 9.85627 24.8388 9.78113 25.4263 9.72487C26.0186 9.65589 26.5653 9.61903 27.0665 9.61428C27.974 9.60569 28.7179 9.6937 29.2981 9.87832C29.8919 10.0628 30.2718 10.3887 30.4379 10.8561C30.6176 11.3233 30.5512 11.983 30.2387 12.8351L28.7557 16.8795C28.7543 16.9936 28.8074 17.0881 28.9149 17.1631C29.0359 17.238 29.173 17.2874 29.3262 17.3113L28.4748 19.4676C28.1357 19.5089 27.781 19.5376 27.4106 19.5537C27.0355 19.5826 26.7511 19.5853 26.5572 19.5618C26.1555 19.553 25.8425 19.4862 25.6182 19.3616C25.3986 19.2243 25.2512 19.0926 25.1759 18.9666C24.9401 19.0575 24.6319 19.1618 24.2512 19.2795C23.8753 19.3844 23.4701 19.477 23.0358 19.5571C22.6014 19.6373 22.1743 19.6794 21.7544 19.6833ZM23.5018 17.3475C23.705 17.3455 23.9084 17.3246 24.1121 17.2847C24.3339 17.2319 24.5445 17.1728 24.7439 17.1076C24.9569 17.0422 25.1269 16.9835 25.2539 16.9316L25.8275 15.3673L24.2953 15.5149C23.9609 15.5434 23.6821 15.6411 23.4589 15.808C23.254 15.962 23.1002 16.1789 22.9976 16.4587C22.895 16.7385 22.8811 16.9604 22.9559 17.1245C23.0354 17.2758 23.2174 17.3502 23.5018 17.3475Z" fill="#F4F6FF"/>
<path d="M32.4264 19.3542L36.134 9.24326L32.8018 9.27481L33.8301 6.47047L43.9893 6.37428L42.961 9.17862L39.7507 9.20902L36.0431 19.3199L32.4264 19.3542Z" fill="#F4F6FF"/>
<path d="M40.3808 19.2788L43.8995 9.68303L47.3739 9.65013L46.9962 10.6803C47.2735 10.5129 47.5938 10.3388 47.9571 10.1579C48.3386 9.96418 48.7244 9.79577 49.1143 9.65266C49.5042 9.50956 49.8552 9.41752 50.1672 9.37654L49.0269 12.4861C48.7332 12.5142 48.3983 12.5808 48.0223 12.6857C47.6464 12.7907 47.2793 12.9082 46.9211 13.0384C46.5765 13.1684 46.2704 13.2853 46.0028 13.3893L43.8552 19.2459L40.3808 19.2788Z" fill="#F4F6FF"/>
<path d="M50.6049 19.4102C49.4535 19.4211 48.6867 19.1748 48.3043 18.6715C47.9219 18.1682 47.9266 17.3823 48.3184 16.314C48.5982 15.5509 48.9617 14.9645 49.4089 14.5547C49.8697 14.1448 50.4217 13.8544 51.0647 13.6835C51.7078 13.5127 52.4427 13.4043 53.2695 13.3585L55.3706 13.2055L55.5245 12.7858C55.6411 12.4678 55.6143 12.2463 55.4442 12.1212C55.2877 11.9959 55.0198 11.9351 54.6405 11.9387C54.2341 11.9425 53.7689 11.9596 53.2449 11.9899C52.7208 12.0202 52.208 12.0568 51.7063 12.0995C51.2047 12.1423 50.764 12.1845 50.3843 12.2261L51.1152 9.9569C51.5271 9.86428 52.0067 9.77102 52.5541 9.67712C53.115 9.58309 53.6893 9.50795 54.2768 9.45169C54.8691 9.38271 55.4158 9.34585 55.917 9.34111C56.8245 9.33251 57.5684 9.42052 58.1487 9.60514C58.7424 9.78963 59.1224 10.1156 59.2885 10.5829C59.4681 11.0502 59.4017 11.7098 59.0892 12.5619L57.6062 16.6063C57.6048 16.7204 57.6579 16.8149 57.7654 16.89C57.8864 16.9649 58.0235 17.0143 58.1767 17.0381L57.3253 19.1944C56.9862 19.2357 56.6315 19.2644 56.2611 19.2806C55.886 19.3095 55.6016 19.3122 55.4077 19.2886C55.006 19.2798 54.693 19.213 54.4688 19.0884C54.2491 18.9511 54.1017 18.8194 54.0264 18.6934C53.7906 18.7843 53.4824 18.8886 53.1018 19.0063C52.7258 19.1113 52.3207 19.2038 51.8863 19.284C51.452 19.3641 51.0248 19.4062 50.6049 19.4102ZM52.3524 17.0743C52.5555 17.0724 52.759 17.0514 52.9626 17.0115C53.1844 16.9587 53.395 16.8997 53.5945 16.8344C53.8074 16.769 53.9774 16.7104 54.1044 16.6585L54.678 15.0941L53.1458 15.2417C52.8114 15.2702 52.5326 15.3679 52.3094 15.5348C52.1045 15.6888 51.9507 15.9057 51.8481 16.1855C51.7455 16.4653 51.7316 16.6873 51.8064 16.8513C51.8859 17.0027 52.0679 17.077 52.3524 17.0743Z" fill="#F4F6FF"/>
<path d="M60.0579 19.0925L61.4431 9.51691L65.1614 9.48171L63.9504 16.3181L64.3974 16.3139L68.2091 9.45285L71.7242 9.41956L66.0721 19.0356L60.0579 19.0925Z" fill="#F4F6FF"/>
<path d="M73.6769 19.1917C72.4849 19.203 71.5997 19.0403 71.0212 18.7036C70.4474 18.3541 70.1377 17.8184 70.092 17.0964C70.0598 16.3743 70.2466 15.46 70.6523 14.3535C71.0767 13.1962 71.6049 12.2343 72.2369 11.4679C72.8824 10.7013 73.6409 10.1238 74.5122 9.73536C75.3836 9.34689 76.3814 9.14734 77.5057 9.13669C79.1177 9.12143 80.1994 9.46606 80.751 10.1706C81.3161 10.875 81.3165 11.9966 80.7522 13.5355L80.0021 15.1395L73.8456 15.1978C73.6726 15.7064 73.6546 16.0868 73.7916 16.339C73.9333 16.5784 74.2885 16.6955 74.8575 16.6901C75.2909 16.686 75.7741 16.6751 76.3071 16.6574C76.8582 16.6268 77.4026 16.5963 77.9402 16.5659C78.4913 16.5353 78.9544 16.5056 79.3295 16.4767L78.6063 18.6698C78.2308 18.7367 77.7581 18.8109 77.1883 18.8923C76.6185 18.9737 76.0263 19.0427 75.4116 19.0992C74.797 19.1557 74.2187 19.1866 73.6769 19.1917ZM74.5318 13.2712L77.3764 13.2443C77.6142 12.5957 77.6714 12.1452 77.548 11.8929C77.4292 11.6278 77.1259 11.4976 76.6383 11.5023C76.1371 11.507 75.7201 11.6504 75.3872 11.9323C75.059 12.2016 74.7739 12.6479 74.5318 13.2712Z" fill="#F4F6FF"/>
<line x1="87" y1="2" x2="87" y2="25" stroke="white" stroke-width="2"/>
<line y1="1" x2="88" y2="1" stroke="white" stroke-width="2"/>
<line x1="1" y1="2" x2="1" y2="25" stroke="white" stroke-width="2"/>
</svg>
