<svg width="88" height="25" viewBox="0 0 88 25" fill="none" xmlns="http://www.w3.org/2000/svg">
<path fill-rule="evenodd" clip-rule="evenodd" d="M41.0913 10.7604L44.7896 10.7253L44.4589 11.6271L41.7211 11.653L38.0046 21.7882L33.899 21.8271L34.2297 20.9253L37.3749 20.8955L41.0913 10.7604ZM67.5658 20.6097L73.0202 11.3301L73.8928 11.5054L68.0158 21.504L61.5968 21.5648L61.9275 20.663L67.5658 20.6097ZM82.0337 15.527C82.5666 14.0635 82.5286 13.0919 82.0584 12.5058L82.9515 11.8353C83.612 12.6586 83.5768 13.9291 82.9864 15.539L82.9786 15.5604L82.0256 17.5982L75.4176 17.6608L75.7483 16.759L81.4829 16.7047L82.0337 15.527ZM12.7435 13.5824L13.8715 13.5717L14.9848 21.1075L18.2765 21.0764L20.4848 15.0541L21.4452 15.045L18.9063 21.969L14.0511 22.015L13.0624 15.3228L10.5965 22.0477L6.01066 22.0912L8.54963 15.1671L9.51008 15.158L7.30178 21.1803L9.96669 21.155L12.7435 13.5824ZM49.7088 14.2637C50.1137 14.1507 50.4866 14.0755 50.8238 14.0432L50.5857 14.9401C50.3339 14.9642 50.0355 15.0224 49.6866 15.1198C49.3275 15.2201 48.9779 15.332 48.6379 15.4554C48.4265 15.5352 48.23 15.6099 48.0483 15.6795L45.8355 21.7141L41.3923 21.7561L43.3212 16.4958L44.2816 16.4867L42.6834 20.8453L45.2057 20.8214L47.298 15.1154L47.6185 14.9909C47.8894 14.8857 48.1986 14.7676 48.5457 14.6366L48.5499 14.6351L48.554 14.6336C48.9308 14.4967 49.3158 14.3734 49.7088 14.2637ZM16.8553 16.4049L16.5294 16.408L16.8601 15.5062L17.1859 15.5031L16.8553 16.4049ZM72.8622 16.359C72.4686 17.4326 72.2992 18.2884 72.3277 18.9433C72.3683 19.5713 72.6337 20.0246 73.1225 20.3233C73.6252 20.6149 74.4279 20.7734 75.5792 20.7625C76.1064 20.7575 76.6712 20.7275 77.274 20.672C77.8814 20.6162 78.4654 20.5481 79.026 20.468C79.3919 20.4157 79.7156 20.3667 79.9979 20.3209L80.5944 18.512L81.5658 18.4716L80.7137 21.0554L80.2835 21.1321C79.8976 21.2008 79.4164 21.2763 78.8415 21.3585C78.2598 21.4416 77.6565 21.5118 77.0316 21.5693C76.4021 21.6272 75.8076 21.6589 75.2486 21.6642C74.0121 21.6759 73.0409 21.5088 72.3838 21.1263L72.3812 21.1248L72.3786 21.1232C71.7195 20.7218 71.3648 20.1026 71.3131 19.286L71.3129 19.2828L71.3128 19.2796C71.2775 18.4873 71.4827 17.5111 71.9018 16.3681L72.8622 16.359ZM21.5549 18.598C21.187 19.6014 21.2163 20.2475 21.5115 20.6361C21.8119 21.0315 22.4444 21.2656 23.5321 21.2553C23.9218 21.2516 24.3173 21.2126 24.7191 21.1384C25.1351 21.0617 25.5191 20.9739 25.8716 20.8758C26.2413 20.7614 26.5302 20.6631 26.7432 20.581L27.1171 20.4368L27.264 20.6826C27.3065 20.7539 27.409 20.856 27.609 20.9819C27.7684 21.0684 28.0106 21.1258 28.3623 21.1336L28.3859 21.1341L28.4084 21.1368C28.5561 21.1547 28.8017 21.155 29.1659 21.1269L29.1749 21.1262L29.1839 21.1258C29.5427 21.1102 29.8839 21.0825 30.2077 21.0431L29.9987 21.9368C29.6456 21.9797 29.2786 22.0094 28.898 22.0263C28.5266 22.0546 28.2135 22.0605 27.9771 22.0346C27.538 22.0227 27.1626 21.9476 26.8772 21.789L26.8702 21.7851L26.8635 21.7809C26.7301 21.6975 26.611 21.6099 26.5131 21.5169C26.3248 21.5821 26.1123 21.6512 25.8766 21.724L25.8675 21.7269L25.8584 21.7294C25.4598 21.8407 25.0345 21.9376 24.5832 22.0209C24.1143 22.1075 23.6535 22.1528 23.2014 22.1571C21.9808 22.1686 21.0759 21.9091 20.6097 21.2954C20.1383 20.6749 20.177 19.7456 20.5944 18.6071L21.5549 18.598ZM50.4747 18.3242C50.1068 19.3275 50.1361 19.9736 50.4313 20.3623C50.7317 20.7577 51.3642 20.9917 52.4518 20.9814C52.8416 20.9778 53.2371 20.9387 53.6389 20.8646C54.0549 20.7878 54.4389 20.7001 54.7914 20.602C55.1611 20.4875 55.45 20.3893 55.663 20.3072L56.0369 20.1629L56.1838 20.4088C56.2263 20.48 56.3288 20.5821 56.5288 20.7081C56.6882 20.7946 56.9304 20.852 57.2821 20.8597L57.3056 20.8603L57.3282 20.863C57.4759 20.8809 57.7215 20.8812 58.0857 20.8531L58.0947 20.8524L58.1037 20.852C58.4625 20.8363 58.8037 20.8086 59.1275 20.7693L58.9185 21.6629C58.5654 21.7059 58.1984 21.7356 57.8178 21.7524C57.4464 21.7808 57.1333 21.7867 56.8969 21.7608C56.4578 21.7488 56.0824 21.6738 55.797 21.5151L55.79 21.5113L55.7833 21.5071C55.6499 21.4237 55.5308 21.3361 55.4329 21.243C55.2446 21.3083 55.0321 21.3774 54.7964 21.4502L54.7873 21.453L54.7782 21.4556C54.3796 21.5669 53.9543 21.6638 53.503 21.7471C53.0341 21.8336 52.5733 21.8789 52.1212 21.8832C50.9005 21.8948 49.9956 21.6352 49.5294 21.0216C49.0581 20.4011 49.0968 19.4717 49.5142 18.3333L50.4747 18.3242Z" fill="#300219"/>
<path d="M5.08393 19.613L9.81982 6.69775L13.8835 6.65928L15.0984 13.948L15.4235 13.9449L18.1097 6.61926L21.7264 6.58501L16.9905 19.5003L12.9268 19.5387L11.8162 12.0209L11.4708 12.0242L8.7006 19.5788L5.08393 19.613Z" fill="#AF053F"/>
<path d="M21.7544 19.6833C20.603 19.6942 19.8361 19.448 19.4538 18.9446C19.0714 18.4413 19.0761 17.6555 19.4678 16.5871C19.7477 15.8241 20.1112 15.2376 20.5584 14.8278C21.0192 14.4179 21.5711 14.1275 22.2142 13.9566C22.8573 13.7858 23.5922 13.6774 24.4189 13.6316L26.5201 13.4786L26.674 13.0589C26.7906 12.741 26.7638 12.5194 26.5937 12.3943C26.4372 12.269 26.1693 12.2082 25.79 12.2118C25.3836 12.2156 24.9184 12.2327 24.3943 12.263C23.8703 12.2933 23.3574 12.3299 22.8558 12.3727C22.3542 12.4154 21.9135 12.4576 21.5338 12.4992L22.2646 10.23C22.6766 10.1374 23.1562 10.0441 23.7036 9.95024C24.2645 9.85621 24.8388 9.78107 25.4263 9.72481C26.0186 9.65583 26.5653 9.61897 27.0665 9.61422C27.974 9.60563 28.7179 9.69364 29.2981 9.87826C29.8919 10.0627 30.2718 10.3887 30.4379 10.856C30.6176 11.3233 30.5512 11.9829 30.2387 12.8351L28.7557 16.8794C28.7543 16.9935 28.8074 17.088 28.9149 17.1631C29.0359 17.238 29.173 17.2874 29.3262 17.3113L28.4748 19.4676C28.1357 19.5088 27.781 19.5375 27.4106 19.5537C27.0355 19.5826 26.7511 19.5853 26.5572 19.5618C26.1555 19.5529 25.8425 19.4861 25.6182 19.3615C25.3986 19.2242 25.2512 19.0925 25.1759 18.9665C24.9401 19.0574 24.6319 19.1618 24.2512 19.2794C23.8753 19.3844 23.4701 19.4769 23.0358 19.5571C22.6014 19.6372 22.1743 19.6793 21.7544 19.6833ZM23.5018 17.3474C23.705 17.3455 23.9084 17.3245 24.1121 17.2846C24.3339 17.2318 24.5445 17.1728 24.7439 17.1075C24.9569 17.0421 25.1269 16.9835 25.2539 16.9316L25.8275 15.3673L24.2953 15.5148C23.9609 15.5434 23.6821 15.641 23.4589 15.8079C23.254 15.9619 23.1002 16.1789 22.9976 16.4587C22.895 16.7385 22.8811 16.9604 22.9559 17.1244C23.0354 17.2758 23.2174 17.3501 23.5018 17.3474Z" fill="#AF053F"/>
<path d="M32.4264 19.3541L36.134 9.2432L32.8018 9.27475L33.8301 6.47041L43.9893 6.37421L42.961 9.17856L39.7507 9.20896L36.0431 19.3199L32.4264 19.3541Z" fill="#AF053F"/>
<path d="M40.3808 19.2788L43.8995 9.68297L47.3739 9.65007L46.9962 10.6802C47.2735 10.5128 47.5938 10.3387 47.9571 10.1578C48.3386 9.96412 48.7244 9.79571 49.1143 9.6526C49.5042 9.50949 49.8552 9.41745 50.1672 9.37648L49.0269 12.4861C48.7332 12.5142 48.3983 12.5807 48.0223 12.6857C47.6464 12.7906 47.2793 12.9082 46.9211 13.0383C46.5765 13.1683 46.2704 13.2853 46.0028 13.3892L43.8552 19.2459L40.3808 19.2788Z" fill="#AF053F"/>
<path d="M50.6049 19.4101C49.4535 19.421 48.6867 19.1748 48.3043 18.6715C47.9219 18.1681 47.9266 17.3823 48.3184 16.314C48.5982 15.5509 48.9617 14.9644 49.4089 14.5546C49.8697 14.1447 50.4217 13.8543 51.0647 13.6835C51.7078 13.5126 52.4427 13.4043 53.2695 13.3584L55.3706 13.2054L55.5245 12.7857C55.6411 12.4678 55.6143 12.2462 55.4442 12.1211C55.2877 11.9959 55.0198 11.935 54.6405 11.9386C54.2341 11.9425 53.7689 11.9595 53.2449 11.9899C52.7208 12.0202 52.208 12.0567 51.7063 12.0995C51.2047 12.1422 50.764 12.1844 50.3843 12.2261L51.1152 9.95684C51.5271 9.86422 52.0067 9.77096 52.5541 9.67706C53.115 9.58303 53.6893 9.50789 54.2768 9.45163C54.8691 9.38265 55.4158 9.34579 55.917 9.34105C56.8245 9.33245 57.5684 9.42046 58.1487 9.60508C58.7424 9.78957 59.1224 10.1155 59.2885 10.5829C59.4681 11.0501 59.4017 11.7098 59.0892 12.5619L57.6062 16.6062C57.6048 16.7203 57.6579 16.8149 57.7654 16.8899C57.8864 16.9648 58.0235 17.0142 58.1767 17.0381L57.3253 19.1944C56.9862 19.2356 56.6315 19.2643 56.2611 19.2805C55.886 19.3094 55.6016 19.3121 55.4077 19.2886C55.006 19.2797 54.693 19.213 54.4688 19.0884C54.2491 18.951 54.1017 18.8193 54.0264 18.6933C53.7906 18.7843 53.4824 18.8886 53.1018 19.0062C52.7258 19.1112 52.3207 19.2037 51.8863 19.2839C51.452 19.3641 51.0248 19.4061 50.6049 19.4101ZM52.3524 17.0742C52.5555 17.0723 52.759 17.0514 52.9626 17.0114C53.1844 16.9586 53.395 16.8996 53.5945 16.8343C53.8074 16.7689 53.9774 16.7103 54.1044 16.6584L54.678 15.0941L53.1458 15.2417C52.8114 15.2702 52.5326 15.3679 52.3094 15.5347C52.1045 15.6888 51.9507 15.9057 51.8481 16.1855C51.7455 16.4653 51.7316 16.6872 51.8064 16.8513C51.8859 17.0026 52.0679 17.0769 52.3524 17.0742Z" fill="#AF053F"/>
<path d="M60.0579 19.0925L61.4431 9.51685L65.1614 9.48164L63.9504 16.318L64.3974 16.3138L68.2091 9.45279L71.7242 9.4195L66.0721 19.0355L60.0579 19.0925Z" fill="#AF053F"/>
<path d="M73.6769 19.1916C72.4849 19.2029 71.5997 19.0402 71.0212 18.7035C70.4474 18.3541 70.1377 17.8183 70.092 17.0964C70.0598 16.3743 70.2466 15.46 70.6523 14.3535C71.0767 13.1961 71.6049 12.2343 72.2369 11.4678C72.8824 10.7013 73.6409 10.1238 74.5122 9.7353C75.3836 9.34683 76.3814 9.14727 77.5057 9.13663C79.1177 9.12137 80.1994 9.46599 80.751 10.1705C81.3161 10.8749 81.3165 11.9965 80.7522 13.5354L80.0021 15.1395L73.8456 15.1978C73.6726 15.7063 73.6546 16.0867 73.7916 16.3389C73.9333 16.5784 74.2885 16.6954 74.8575 16.69C75.2909 16.6859 75.7741 16.675 76.3071 16.6573C76.8582 16.6267 77.4026 16.5962 77.9402 16.5658C78.4913 16.5352 78.9544 16.5055 79.3295 16.4766L78.6063 18.6697C78.2308 18.7366 77.7581 18.8108 77.1883 18.8922C76.6185 18.9737 76.0263 19.0427 75.4116 19.0992C74.797 19.1557 74.2187 19.1865 73.6769 19.1916ZM74.5318 13.2711L77.3764 13.2442C77.6142 12.5956 77.6714 12.1451 77.548 11.8928C77.4292 11.6278 77.1259 11.4976 76.6383 11.5022C76.1371 11.5069 75.7201 11.6503 75.3872 11.9323C75.059 12.2015 74.7739 12.6478 74.5318 13.2711Z" fill="#AF053F"/>
<line x1="87" y1="2" x2="87" y2="25" stroke="#300219" stroke-width="2"/>
<line y1="1" x2="88" y2="1" stroke="#300219" stroke-width="2"/>
<line x1="1" y1="2" x2="1" y2="25" stroke="#300219" stroke-width="2"/>
</svg>
